# xmcd CD database file
#
# Track frame offsets:
#	150
#	12354
#	27298
#	51714
#	79225
#	99458
#	114770
#	132446
#	151284
#	166921
#	192023
#	212923
#	224762
#	241784
#
# Disc length: 3542 seconds
#
# Revision: 0
# Processed by: cddbd v1.5.2PL0 Copyright (c) Steve Scherf et al.
# Submitted via: CDex 1.51
#
DISCID=bf0dd40e
DTITLE=The Coffee Lounge - Latte
DYEAR=1900
DGENRE=Jazz
TTITLE0=Freedom Jazz Dance
TTITLE1=Zamisdat
TTITLE2=Listen Here
TTITLE3=A Message for You
TTITLE4=A Little Busy
TTITLE5=Koo-Kee
TTITLE6=Mr.Walker
TTITLE7=Populex
TTITLE8=The Roadster
TTITLE9=What's Theme?
TTITLE10=Russ
TTITLE11=Scratch
TTITLE12=Wapskalian
TTITLE13=Offline
EXTD=
EXTT0=
EXTT1=
EXTT2=
EXTT3=
EXTT4=
EXTT5=
EXTT6=
EXTT7=
EXTT8=
EXTT9=
EXTT10=
EXTT11=
EXTT12=
EXTT13=
PLAYORDER=
